<svg width="50" height="50" viewBox="0 0 50 50" fill="none" xmlns="http://www.w3.org/2000/svg">
<path d="M42.1895 20.0536H39.7037C39.4419 19.2801 39.1682 18.6362 38.8535 18.0161L38.8945 18.1047L40.6636 16.354C41.1264 15.9574 41.4173 15.373 41.4173 14.7198C41.4173 14.183 41.2203 13.6911 40.8937 13.3143L40.8963 13.3169L36.6943 9.11493C36.3202 8.78967 35.8296 8.59266 35.2915 8.59266C34.6383 8.59266 34.0526 8.88487 33.6599 9.34632L33.6572 9.34896L31.896 11.1075C31.3645 10.8351 30.7219 10.5614 30.0582 10.3327L29.9497 10.2996L29.9616 7.81387C29.9656 7.76098 29.9682 7.70016 29.9682 7.63802C29.9682 6.50885 29.0956 5.5833 27.9876 5.5H27.981H22.0363C20.9203 5.5833 20.0464 6.50885 20.0464 7.63802C20.0464 7.70016 20.049 7.76098 20.0543 7.82181V7.81387V10.2983C19.2808 10.5601 18.6382 10.8325 18.0181 11.1458L18.1067 11.1049L16.3561 9.33838C15.9607 8.87297 15.375 8.58076 14.7218 8.58076C14.1837 8.58076 13.6931 8.77909 13.3163 9.10568L13.3189 9.10303L9.11562 13.3063C8.79036 13.6805 8.59203 14.1724 8.59203 14.7092C8.59203 15.3624 8.88424 15.9481 9.34569 16.3408L9.34833 16.3435L11.1056 18.1007C10.8319 18.6335 10.5582 19.2788 10.3294 19.9452L10.2977 20.0536L7.81192 20.0417C7.75903 20.0377 7.69821 20.0351 7.63607 20.0351C6.5069 20.0351 5.58135 20.9091 5.49805 22.0171V22.0237V27.967C5.58002 29.083 6.5069 29.957 7.63607 29.957C7.69821 29.957 7.75903 29.9543 7.81985 29.949H7.81192H10.2977C10.5595 30.7225 10.8319 31.3665 11.1465 31.9866L11.1069 31.8993L9.34172 33.6446C8.87762 34.0413 8.58541 34.6284 8.58541 35.2828C8.58541 35.821 8.78242 36.3129 9.10901 36.6897L9.10637 36.687L13.3097 40.889C13.6389 41.2143 14.0911 41.4166 14.5922 41.4166C14.6015 41.4166 14.6107 41.4166 14.62 41.4166H14.6187C15.2996 41.3994 15.9105 41.1112 16.3481 40.655L16.3495 40.6537L18.108 38.8951C18.6408 39.1688 19.2861 39.4425 19.9525 39.6713L20.0609 39.7043L20.049 42.1874C20.045 42.2403 20.0424 42.3012 20.0424 42.362C20.0424 43.4911 20.9164 44.418 22.0244 44.5H22.031H27.9757C29.0903 44.4154 29.963 43.4911 29.963 42.362C29.963 42.2998 29.9603 42.239 29.955 42.1782V42.1861V39.699C30.7285 39.4372 31.3738 39.1635 31.9952 38.8489L31.9066 38.8898L33.6533 40.6524C34.0922 41.1072 34.7018 41.3954 35.3774 41.4113H35.3801H35.3827C35.3906 41.4113 35.3999 41.4113 35.4078 41.4113C35.9076 41.4113 36.3598 41.2117 36.6917 40.889L40.8924 36.6884C41.215 36.3591 41.4146 35.9069 41.4146 35.4085C41.4146 35.3966 41.4146 35.386 41.4146 35.3741C41.3988 34.6958 41.1119 34.0889 40.6583 33.6512L40.657 33.6499L38.8972 31.8887C39.1695 31.3585 39.4419 30.7159 39.672 30.0522L39.705 29.9424L42.1895 29.9543C42.2424 29.9583 42.3032 29.9609 42.364 29.9609C43.4945 29.9609 44.42 29.087 44.502 27.9776V27.971V22.0277C44.4187 20.9117 43.4932 20.0391 42.3627 20.0391C42.3005 20.0391 42.2397 20.0417 42.1802 20.047H42.1881L42.1895 20.0536ZM42.1948 27.9789L39.0003 27.9631C38.9738 27.9631 38.9514 27.9763 38.9262 27.9776C38.6644 28.0094 38.4344 28.1297 38.2638 28.3069C38.1911 28.4021 38.1276 28.5092 38.0774 28.6242L38.0734 28.6348C38.0668 28.6533 38.0523 28.6665 38.047 28.6863C37.7296 29.8023 37.3158 30.7741 36.7988 31.6798L36.8332 31.615C36.7618 31.7473 36.7195 31.9033 36.7195 32.0699V32.0752C36.7195 32.0963 36.7234 32.1122 36.7248 32.1347C36.7327 32.3819 36.8305 32.604 36.9879 32.7706L36.9998 32.8011L39.2568 35.0607C39.4009 35.2048 39.4379 35.345 39.4895 35.2934L35.388 39.4359C35.2571 39.4187 35.1421 39.3553 35.0601 39.264L32.8163 36.9991C32.8057 36.9872 32.7872 36.9925 32.7766 36.9819C32.6166 36.8338 32.4064 36.7399 32.1737 36.7267H32.1711C32.1446 36.7227 32.1129 36.7201 32.0811 36.7188C31.9159 36.7188 31.7585 36.7611 31.6237 36.8351L31.6289 36.8325C30.788 37.3111 29.8136 37.7263 28.7915 38.0264L28.6936 38.0516C28.6738 38.0569 28.6606 38.0714 28.6421 38.078C28.5151 38.1335 28.4054 38.1997 28.3049 38.275L28.3089 38.2724C28.2626 38.3173 28.2216 38.3663 28.1859 38.4178L28.1833 38.4205C28.1476 38.4641 28.1132 38.513 28.0841 38.5659L28.0814 38.5712C28.0378 38.6783 28.0034 38.8026 27.9849 38.9335L27.9836 38.9427C27.9823 38.9639 27.9704 38.9837 27.9704 39.0049V42.1941C27.9704 42.3924 27.8977 42.522 27.9704 42.5246L22.1394 42.555C22.0707 42.4664 22.0284 42.3527 22.0284 42.2298C22.0284 42.2192 22.0284 42.2086 22.0297 42.198L22.0455 39.0102C22.0455 38.9877 22.035 38.9679 22.0323 38.9467C22.0257 38.8766 22.0125 38.8118 21.9927 38.7497L21.994 38.7563C21.9781 38.6862 21.957 38.6241 21.9305 38.5646L21.9332 38.5712C21.8644 38.4575 21.789 38.3596 21.7044 38.2711C21.6661 38.2393 21.6224 38.2102 21.5775 38.1838L21.5722 38.1811C21.514 38.1415 21.4492 38.1071 21.3792 38.0807L21.3725 38.078C21.354 38.0714 21.3408 38.0569 21.321 38.0516C20.2011 37.7329 19.2253 37.3191 18.3169 36.8034L18.3843 36.8378C18.2534 36.7664 18.0987 36.7241 17.9335 36.7241C17.9044 36.7227 17.8806 36.7294 17.8515 36.7307C17.6135 36.7413 17.3993 36.8365 17.2367 36.9859C17.2261 36.9964 17.2102 36.9911 17.1996 37.0017L14.9453 39.2561C14.8038 39.3976 14.6597 39.4399 14.7099 39.4915L10.5661 35.3913C10.582 35.259 10.6454 35.144 10.738 35.0607L13.0043 32.8196L13.0188 32.7852C13.1709 32.6226 13.2687 32.407 13.2793 32.169V32.1664C13.2806 32.1386 13.2859 32.1175 13.2859 32.0897V32.0857C13.2859 31.9191 13.2436 31.7618 13.1695 31.6256L13.1722 31.6309C12.6896 30.79 12.2744 29.8181 11.9782 28.7948L11.9544 28.6996C11.9491 28.6797 11.9333 28.6652 11.9266 28.6453C11.8711 28.5211 11.8076 28.4126 11.7336 28.3148L11.7362 28.3188C11.6503 28.2381 11.5564 28.1641 11.4559 28.1006L11.448 28.0966C11.3806 28.0636 11.3039 28.0371 11.2219 28.0213L11.2153 28.0199C11.177 28.008 11.1294 27.9988 11.0804 27.9922H11.0751C11.0487 27.9895 11.0262 27.9763 10.9985 27.9763H7.80928C7.6083 27.9789 7.48137 27.9036 7.47872 27.9737L7.44963 22.144C7.53822 22.0753 7.64929 22.033 7.77225 22.033C7.78415 22.033 7.79473 22.033 7.80663 22.0343H7.80531L10.9998 22.0501C11.2008 22.0449 11.3859 21.9787 11.5379 21.8703L11.5353 21.873C11.567 21.8545 11.5935 21.8359 11.6199 21.8161L11.6172 21.8174C11.7614 21.7011 11.8698 21.5451 11.928 21.3666L11.9293 21.3599C11.9333 21.3467 11.9478 21.3414 11.9518 21.3269C12.2717 20.207 12.6856 19.2338 13.2026 18.3255L13.1682 18.3916C13.2396 18.2594 13.2819 18.1033 13.2819 17.9367V17.9341C13.2832 17.909 13.2779 17.8905 13.2766 17.8653C13.2674 17.622 13.1709 17.4026 13.0162 17.2373L13.0029 17.2056L10.7486 14.9512C10.6058 14.8057 10.5608 14.659 10.5158 14.7158L14.6174 10.572C14.7509 10.5826 14.8673 10.6487 14.9453 10.7452L14.9466 10.7465L17.1904 13.0115C17.2142 13.0353 17.2512 13.026 17.2763 13.0472C17.4416 13.2072 17.6664 13.3063 17.915 13.3063C18.0868 13.3063 18.2468 13.2587 18.3843 13.1768L18.3804 13.1794C19.2213 12.6981 20.1944 12.2843 21.2165 11.9868L21.3117 11.963C21.3302 11.9577 21.3435 11.9431 21.362 11.9379C21.4373 11.9101 21.5008 11.8757 21.5616 11.836L21.5576 11.8387C21.7732 11.7197 21.9292 11.5161 21.9821 11.2741L21.9834 11.2688C22.0019 11.212 22.0165 11.1458 22.0231 11.0771V11.0731C22.0244 11.052 22.035 11.0335 22.035 11.0123V7.82313C22.035 7.62347 22.109 7.4939 22.0363 7.49258L27.8673 7.46216C27.936 7.55075 27.977 7.66314 27.977 7.78611C27.977 7.79801 27.977 7.80858 27.9757 7.82048L27.9598 11.0083C27.9598 11.0295 27.9704 11.048 27.9717 11.0705C27.9783 11.1432 27.9915 11.2106 28.0127 11.2754L28.0114 11.2688C28.1053 11.5782 28.3327 11.8228 28.6249 11.9379L28.6315 11.9405C28.65 11.9471 28.6645 11.9617 28.6831 11.9669C29.8003 12.2869 30.7722 12.7008 31.6779 13.2164L31.6118 13.1821C31.7506 13.2614 31.9172 13.309 32.0957 13.309H32.097C32.339 13.2984 32.5558 13.2006 32.7198 13.0472C32.7423 13.0274 32.7766 13.0366 32.7978 13.0155L35.0574 10.7611C35.1963 10.6209 35.3391 10.5799 35.2902 10.5284L39.4327 14.6299C39.4168 14.7621 39.3546 14.8758 39.2621 14.9591L36.9945 17.2029L36.9799 17.2373C36.8266 17.3999 36.7287 17.6168 36.7181 17.8561V17.8587C36.7168 17.8852 36.7115 17.9063 36.7115 17.9328V17.9367C36.7115 18.1033 36.7538 18.2607 36.8279 18.3969L36.8252 18.3916C37.3079 19.2325 37.723 20.2043 38.0179 21.2264L38.0417 21.3203C38.0456 21.3361 38.0628 21.3428 38.0668 21.3573C38.1276 21.5384 38.2347 21.6918 38.3736 21.8055L38.3749 21.8069C38.4 21.8267 38.4291 21.8465 38.4582 21.8637L38.4621 21.8664C38.6102 21.9721 38.7953 22.0382 38.9937 22.0435H42.1842C42.3852 22.0422 42.5121 22.1189 42.5147 22.0449L42.5425 27.8745C42.4566 27.9446 42.3455 27.9869 42.2252 27.9869C42.2119 27.9869 42.2 27.9869 42.1868 27.9856H42.1881L42.1948 27.9789Z" fill="#CFCFCF"/>
</svg>
