<svg width="50" height="50" viewBox="0 0 50 50" fill="none" xmlns="http://www.w3.org/2000/svg">
<path d="M40.318 10.9324C40.318 10.3802 39.8703 9.93244 39.318 9.93244H30.318C29.7657 9.93244 29.318 10.3802 29.318 10.9324C29.318 11.4847 29.7657 11.9324 30.318 11.9324L38.318 11.9324V19.9324C38.318 20.4847 38.7657 20.9324 39.318 20.9324C39.8703 20.9324 40.318 20.4847 40.318 19.9324V10.9324ZM11.89 39.7747L40.0251 11.6395L38.6109 10.2253L10.4758 38.3605L11.89 39.7747Z" fill="#CFCFCF"/>
<path d="M38.8173 40.0676C39.3695 40.0676 39.8173 39.6198 39.8173 39.0676V30.0676C39.8173 29.5153 39.3695 29.0676 38.8173 29.0676C38.265 29.0676 37.8173 29.5153 37.8173 30.0676V38.0676H29.8173C29.265 38.0676 28.8173 38.5153 28.8173 39.0676C28.8173 39.6198 29.265 40.0676 29.8173 40.0676H38.8173ZM9.97502 11.6395L38.1101 39.7747L39.5244 38.3605L11.3892 10.2253L9.97502 11.6395Z" fill="#CFCFCF"/>
</svg>
