<svg width="50" height="50" viewBox="0 0 50 50" fill="none" xmlns="http://www.w3.org/2000/svg">
<path d="M42.1551 16.6662C42.5456 16.2756 42.5456 15.6425 42.1551 15.2519L35.7911 8.88798C35.4006 8.49745 34.7675 8.49745 34.3769 8.88798C33.9864 9.2785 33.9864 9.91167 34.3769 10.3022L40.0338 15.959L34.3769 21.6159C33.9864 22.0064 33.9864 22.6396 34.3769 23.0301C34.7675 23.4206 35.4006 23.4206 35.7911 23.0301L42.1551 16.6662ZM8.552 16.959H41.448V14.959H8.552V16.959Z" fill="#CFCFCF"/>
<path d="M7.8449 34.7481C7.45437 34.3575 7.45437 33.7244 7.8449 33.3338L14.2089 26.9699C14.5994 26.5794 15.2325 26.5794 15.6231 26.9699C16.0136 27.3604 16.0136 27.9936 15.6231 28.3841L9.96622 34.041L15.6231 39.6978C16.0136 40.0883 16.0136 40.7215 15.6231 41.112C15.2325 41.5025 14.5994 41.5025 14.2089 41.112L7.8449 34.7481ZM41.448 35.041H8.552V33.041H41.448V35.041Z" fill="#CFCFCF"/>
</svg>
