<svg width="50" height="50" viewBox="0 0 50 50" fill="none" xmlns="http://www.w3.org/2000/svg">
<path d="M24.9039 46.9039C30.7387 46.9039 36.3345 44.5861 40.4603 40.4603C44.5861 36.3345 46.9039 30.7387 46.9039 24.9039C46.9039 19.0692 44.5861 13.4734 40.4603 9.34758C36.3345 5.22178 30.7387 2.90393 24.9039 2.90393L24.9039 10.6937C28.6727 10.6937 32.2871 12.1909 34.9521 14.8558C37.617 17.5207 39.1141 21.1352 39.1141 24.9039C39.1141 28.6727 37.617 32.2871 34.9521 34.9521C32.2871 37.617 28.6727 39.1141 24.9039 39.1141L24.9039 46.9039Z" fill="#CFCFCF"/>
<path d="M25 10.7473C21.2199 10.7473 17.5947 12.249 14.9218 14.9219C12.2489 17.5947 10.7473 21.22 10.7473 25C10.7473 28.78 12.2489 32.4053 14.9218 35.0781C17.5947 37.751 21.2199 39.2527 25 39.2527L25 33.5516C22.7319 33.5516 20.5568 32.6506 18.9531 31.0469C17.3493 29.4432 16.4484 27.268 16.4484 25C16.4484 22.732 17.3493 20.5568 18.9531 18.9531C20.5568 17.3494 22.7319 16.4484 25 16.4484L25 10.7473Z" fill="#CFCFCF"/>
</svg>
